<svg xmlns="http://www.w3.org/2000/svg" width="157" height="25" fill="none"><path fill="#E00" d="M5.457 6.086c-.705 2.344-1.48 5.469-2.18 8.918-.698 3.456-1.2 6.632-1.46 9.065.705-2.344 1.48-5.47 2.179-8.925.698-3.456 1.2-6.632 1.46-9.065v.007ZM3.64 6.041c-.705 2.344-1.48 5.47-2.179 8.925-.699 3.456-1.2 6.632-1.461 9.07.705-2.343 1.48-5.468 2.179-8.918.699-3.455 1.2-6.631 1.46-9.07V6.04ZM7.273 6.13c-.705 2.344-1.48 5.47-2.179 8.918-.698 3.456-1.2 6.632-1.46 9.065.705-2.344 1.48-5.47 2.178-8.925.699-3.455 1.2-6.632 1.461-9.064v.006ZM9.096 6.168c-.711 2.344-1.48 5.47-2.178 8.925-.7 3.456-1.201 6.632-1.461 9.065.705-2.344 1.48-5.47 2.178-8.925.7-3.456 1.2-6.632 1.461-9.071v.006Z"/><path fill="#E00" d="M26.8 0h-6.467L7.54 15.01l5.076 8.392h5.818l-4.974-8.455L26.8 0Z"/><path fill="#E00" d="M54.172 14.26c-.762-.596-1.861-1.066-3.29-1.41l-1.633-.4c-.566-.171-.998-.362-1.296-.571a.912.912 0 0 1-.343-.845c.127-.553.68-.826 1.658-.826 1.245 0 1.867.432 1.867 1.296h4.77c0-1.747-.5-2.973-1.505-3.678-1.105-.762-2.496-1.143-4.18-1.143-1.371 0-2.597.203-3.67.603-1.074.4-1.932.96-2.567 1.67-.635.712-1.042 1.5-1.207 2.364l-.064.508-.063.59c0 1.189.432 2.065 1.296 2.637.864.572 2.102 1.048 3.71 1.43 1.117.323 1.848.577 2.184.749.337.177.509.38.509.711 0 .33-.273.845-1.41.845H38.316s.997-5.666 1.473-8.398c.477-2.731-1.295-3.335-2.718-3.335h-8.208c-8.658 0-10.722 5.927-11.046 7.775l-.146.87-.02.935c0 .92.153 1.778.47 2.585.338.775.801 1.43 1.38 1.95 1.213 1.073 2.902 1.607 5.068 1.607.337 0 .68-.019 1.03-.063.349-.045.666-.096.965-.146a9.044 9.044 0 0 0 1.785-.591c1.188-.566 2.166-1.328 2.935-2.293a9.063 9.063 0 0 0 1.664-3.246h-4.815c-.59 1.74-1.614 2.61-3.055 2.61-3.628 0-2.611-4.211-2.611-4.211.229-1.27 1.486-4.421 5.024-4.421h7.293s-1.023 6.028-1.537 8.728c-.515 2.693.952 3.22 3.03 3.22h11.408c3.176 0 4.37-.597 4.777-.813 1.518-.826 2.452-2.153 2.789-3.99l.063-.907c0-.985-.381-1.779-1.143-2.382v-.013Z"/><path fill="#221E1F" d="M67.433 7.398H60.58c-.183 0-.272-.095-.272-.285V6.3c0-.184.095-.272.285-.272h6.84c.19 0 .285.088.285.272v.824c0 .184-.095.273-.285.273Zm-3.334 4.931c-.393 0-.761-.057-1.11-.17a3.103 3.103 0 0 1-.912-.47 2.307 2.307 0 0 1-.622-.716 1.876 1.876 0 0 1-.228-.913c0-.33.076-.621.228-.9.152-.279.362-.52.622-.716.26-.203.57-.355.925-.47a3.633 3.633 0 0 1 1.116-.17c.386 0 .767.056 1.115.17.355.115.66.273.926.47.26.202.469.443.62.716a1.911 1.911 0 0 1 0 1.813c-.151.279-.36.52-.62.716-.26.203-.57.355-.926.47a3.666 3.666 0 0 1-1.134.17Zm1.66-6.814h-3.404a.383.383 0 0 1-.19-.044c-.057-.032-.082-.108-.082-.228v-.837c0-.12.025-.197.082-.228a.383.383 0 0 1 .19-.045h3.404c.19 0 .286.095.286.286v.81a.4.4 0 0 1-.051.216c-.032.051-.114.07-.235.07ZM70.393 16.4h-7.131c-.184 0-.336-.013-.45-.044a.54.54 0 0 1-.273-.153.669.669 0 0 1-.14-.285 2.27 2.27 0 0 1-.037-.456v-2.225c0-.178.088-.26.26-.26h1.28c.184 0 .273.089.273.26v1.502c0 .133.063.197.196.197h6.016c.07 0 .133.012.19.044.057.032.082.095.082.19v.995c0 .12-.025.19-.082.21a.6.6 0 0 1-.19.025h.006Zm-6.282-7.302c-.374 0-.672.095-.88.285a.857.857 0 0 0-.318.665.91.91 0 0 0 .33.691c.222.197.507.298.875.298.367 0 .659-.101.874-.298.216-.202.33-.43.33-.69 0-.26-.108-.476-.323-.666-.216-.19-.507-.285-.881-.285h-.007Zm7.626.748h-1.585v3.492c0 .095-.013.159-.044.197-.032.038-.095.05-.19.05h-1.319c-.095 0-.165-.019-.203-.05-.038-.032-.057-.102-.057-.197V4.273c0-.165.089-.247.26-.247h1.319c.158 0 .234.082.234.247v4.082h1.585c.07 0 .133.006.184.025.05.02.076.089.076.21v1.02c0 .095-.026.158-.07.19a.352.352 0 0 1-.19.045ZM83.85 10.117h-4.71v1.66h2.263c.19 0 .35.013.463.045.12.032.21.082.273.165a.738.738 0 0 1 .14.31c.025.127.037.28.037.463v3.543c0 .178-.082.26-.247.26h-1.28c-.19 0-.286-.088-.286-.26v-2.84c0-.132-.063-.196-.183-.196h-6.15a.413.413 0 0 1-.183-.038c-.05-.025-.076-.088-.076-.184v-1.033c0-.114.025-.184.076-.203a.53.53 0 0 1 .184-.031h3.15v-1.661h-4.71c-.107 0-.177-.02-.209-.057-.038-.038-.05-.108-.05-.203v-.945c0-.107.012-.177.038-.221.025-.045.101-.064.222-.064h7.822c.031-.19.07-.412.101-.665.032-.254.057-.501.083-.748.025-.248.044-.463.056-.66.013-.196.02-.336.02-.412a.587.587 0 0 0-.051-.278c-.032-.058-.133-.083-.298-.083H74.43a.565.565 0 0 1-.203-.032c-.05-.019-.07-.088-.07-.202V4.526c0-.095.026-.158.07-.184a.444.444 0 0 1 .203-.038h7.131c.317 0 .545.07.69.203.147.133.223.368.223.697 0 .463-.02.995-.064 1.604a15.016 15.016 0 0 1-.247 1.826h1.686c.184 0 .273.095.273.285v.944c0 .108-.026.178-.076.21a.376.376 0 0 1-.197.05v-.006ZM91.28 13.325c-.115.139-.273.133-.47-.026a4.647 4.647 0 0 1-.564-.507 10.904 10.904 0 0 1-1.249-1.585 8.567 8.567 0 0 1-.5-.887c-.159.342-.33.672-.526 1.002-.197.33-.4.64-.615.938a8.92 8.92 0 0 1-.685.824 6.61 6.61 0 0 1-.71.653c-.12.095-.21.145-.266.158-.057.006-.127-.032-.216-.12l-.716-.748c-.07-.07-.108-.14-.108-.203 0-.064.051-.152.159-.254a9.345 9.345 0 0 0 1.382-1.68c.412-.64.735-1.305.963-1.996.184-.558.317-1.167.406-1.82.088-.652.133-1.362.133-2.13 0-.094.013-.164.044-.215.032-.05.108-.07.228-.07l1.255.038c.121.007.197.038.222.083a.53.53 0 0 1 .038.228c0 1.071-.082 2.047-.247 2.929.095.367.241.754.444 1.16.203.405.425.792.672 1.166.247.367.507.71.773 1.027.266.317.514.564.742.748.12.095.184.184.177.253a.473.473 0 0 1-.127.254l-.627.786-.013-.006Zm5.064-3.106h-1.623v6.097c0 .108-.012.172-.044.203-.032.032-.095.045-.19.045h-1.319c-.095 0-.165-.013-.203-.045-.038-.031-.057-.101-.057-.203V4.273c0-.095.02-.159.057-.197.038-.031.108-.05.203-.05h1.319c.095 0 .158.019.19.05.032.032.044.102.044.197v4.462h1.623c.076 0 .14.013.19.032.05.019.07.095.07.215v.996c0 .107-.025.17-.07.203a.352.352 0 0 1-.19.044v-.006ZM101.041 13.49a2.99 2.99 0 0 1-1.375-.318c-.412-.209-.76-.5-1.046-.88a4.301 4.301 0 0 1-.666-1.357 5.937 5.937 0 0 1-.234-1.724c0-.628.076-1.236.234-1.775.159-.539.38-.995.666-1.382a2.945 2.945 0 0 1 1.046-.894 2.913 2.913 0 0 1 1.375-.317c.507 0 .976.108 1.395.317.418.21.767.5 1.052.881.285.38.507.837.666 1.376.158.539.234 1.128.234 1.775a6.16 6.16 0 0 1-.234 1.762 4.32 4.32 0 0 1-.666 1.356 3.04 3.04 0 0 1-1.052.875 3.05 3.05 0 0 1-1.395.317v-.013Zm0-7.062c-.228 0-.431.07-.621.203s-.349.323-.482.57c-.133.241-.24.54-.317.875-.076.342-.114.71-.114 1.11 0 .399.038.74.114 1.07.076.33.178.622.317.863.133.247.298.437.482.576a1.044 1.044 0 0 0 1.255 0c.19-.139.349-.33.482-.576.133-.241.241-.533.317-.862a4.8 4.8 0 0 0 .108-1.072c0-.38-.038-.773-.108-1.109a3.084 3.084 0 0 0-.317-.875 1.73 1.73 0 0 0-.482-.57 1.078 1.078 0 0 0-.634-.203Zm6.238 10.136h-1.306c-.095 0-.159-.013-.197-.045-.038-.031-.05-.101-.05-.203V4.273c0-.095.019-.159.05-.197.032-.031.102-.05.197-.05h1.306c.095 0 .158.019.196.05.038.032.051.102.051.197v12.05c0 .107-.019.17-.051.203-.032.031-.101.044-.196.044v-.006ZM115.183 12.931h-4.006c-.209 0-.38-.012-.514-.037a.634.634 0 0 1-.316-.14.48.48 0 0 1-.153-.279 2.49 2.49 0 0 1-.038-.482v-7.03c0-.164.076-.247.235-.247h1.318c.178 0 .26.083.26.248v2.63h2.396V4.951c0-.178.083-.26.248-.26h1.305c.171 0 .26.089.26.26v3.245h1.921V4.273c0-.095.013-.159.044-.197.032-.031.095-.05.19-.05h1.319c.095 0 .158.019.196.05.032.032.051.102.051.197v12.05c0 .107-.019.17-.051.203-.038.031-.101.044-.196.044h-1.319c-.095 0-.158-.013-.19-.044-.031-.032-.044-.102-.044-.203v-6.63h-1.921v2.338c0 .343-.07.577-.203.704-.133.133-.405.197-.805.197h.013Zm-.811-3.86h-2.396v2.187c0 .133.063.197.196.197h2.003c.133 0 .197-.064.197-.197V9.071ZM122.929 11.778c-.146.07-.254.095-.304.07-.057-.02-.108-.07-.153-.153l-.494-.912c-.076-.146-.025-.273.171-.368.469-.24.913-.526 1.325-.837.412-.31.792-.634 1.128-.97.336-.33.622-.659.862-.982.241-.323.419-.615.546-.875.069-.146.101-.253.088-.317-.006-.063-.082-.088-.222-.088h-2.985c-.121 0-.197-.026-.216-.07a.568.568 0 0 1-.031-.203v-.945c0-.19.088-.285.26-.285h4.411c.526 0 .843.127.97.38.121.254.102.603-.063 1.046-.133.343-.298.691-.495 1.046-.196.355-.431.717-.691 1.072a7.29 7.29 0 0 0 1.16.988c.425.292.799.533 1.135.73.146.088.178.196.076.329l-.678.957c-.051.07-.102.108-.152.12-.051.007-.121-.012-.216-.063a5.928 5.928 0 0 1-.488-.31 23.35 23.35 0 0 1-.602-.431 9.137 9.137 0 0 1-.64-.527 7.48 7.48 0 0 1-.609-.583c-.437.444-.913.856-1.426 1.23a9.455 9.455 0 0 1-1.648.957l-.019-.006Zm9.204 4.577h-6.865a1.84 1.84 0 0 1-.463-.045.519.519 0 0 1-.279-.165.64.64 0 0 1-.146-.298 2.3 2.3 0 0 1-.038-.456v-2.865c0-.184.089-.273.26-.273h1.293c.178 0 .26.089.26.273v2.13c0 .133.07.196.21.196h5.768c.07 0 .133.013.184.045.05.031.076.095.076.19v1.033c0 .12-.026.19-.076.21a.539.539 0 0 1-.184.025Zm-.361-3.373h-1.319c-.095 0-.158-.019-.196-.057-.038-.038-.051-.108-.051-.203v-8.45c0-.164.082-.246.247-.246h1.319c.158 0 .234.082.234.247v8.462c0 .095-.013.159-.044.197-.032.031-.095.05-.19.05ZM145.324 12h-11.226c-.121 0-.197-.02-.222-.064a.485.485 0 0 1-.038-.222v-.85c0-.094.019-.164.051-.202.031-.038.107-.057.209-.057h11.226c.076 0 .146.019.196.05.051.032.076.109.076.21v.85c0 .19-.088.284-.272.284Zm-5.616-1.832c-.552 0-1.04-.051-1.471-.152a4.07 4.07 0 0 1-1.096-.413 1.941 1.941 0 0 1-.685-.627 1.446 1.446 0 0 1-.235-.799c0-.374.146-.716.444-1.02h-1.515c-.177 0-.26-.089-.26-.26v-.799c0-.095.019-.158.064-.196a.36.36 0 0 1 .209-.051h9.134c.095 0 .165.019.203.05.038.039.057.102.057.197v.811c0 .165-.089.248-.26.248h-1.534c.304.323.456.665.456 1.02 0 .286-.082.552-.24.799a2.09 2.09 0 0 1-.691.627c-.298.178-.666.311-1.097.412a6.472 6.472 0 0 1-1.471.153h-.012Zm0 6.541a8.393 8.393 0 0 1-1.788-.17c-.52-.115-.957-.267-1.306-.457-.355-.19-.621-.419-.805-.679a1.414 1.414 0 0 1-.272-.824c0-.285.089-.557.272-.817.184-.26.45-.482.805-.672.355-.19.793-.342 1.306-.45a8.852 8.852 0 0 1 1.788-.165c.672 0 1.268.057 1.787.165.52.107.957.26 1.306.45.355.19.621.418.805.672.184.26.273.532.273.817 0 .286-.089.565-.273.824-.184.26-.45.489-.805.679-.355.19-.792.342-1.306.456a8.337 8.337 0 0 1-1.787.171Zm0-2.903c-.805 0-1.388.083-1.769.247-.374.165-.564.343-.564.54 0 .196.19.367.564.538.374.165.964.247 1.769.247.805 0 1.388-.082 1.768-.247.374-.165.564-.342.564-.539 0-.196-.19-.367-.564-.539-.374-.165-.963-.247-1.768-.247Zm1.99-8.45h-3.962a.384.384 0 0 1-.19-.044c-.057-.032-.082-.101-.082-.215v-.85c0-.114.025-.184.082-.215a.384.384 0 0 1 .19-.045h3.962c.19 0 .285.09.285.273v.824a.368.368 0 0 1-.05.21c-.038.043-.114.062-.235.062Zm-1.99 1.858c-.552 0-.964.088-1.249.266-.285.177-.425.368-.425.57 0 .203.14.393.425.577.285.184.697.273 1.249.273.551 0 .97-.089 1.255-.273.285-.184.431-.374.431-.577 0-.202-.146-.393-.431-.57-.285-.178-.704-.266-1.255-.266ZM150.883 12.735h-1.242c-.184 0-.273-.089-.273-.26V10.89c-.488.02-.97.026-1.439.032-.469 0-.932 0-1.388-.02-.108 0-.171-.018-.203-.063-.031-.044-.044-.114-.044-.209v-.874c0-.095.019-.165.051-.216.038-.05.101-.07.196-.057 1.236.019 2.491 0 3.759-.032 1.268-.038 2.51-.14 3.721-.291.133-.02.215-.013.253.006.038.02.07.082.083.19l.108.875c.019.108 0 .171-.038.203a.446.446 0 0 1-.197.07c-.488.07-.989.126-1.502.17-.514.045-1.04.09-1.572.134v1.673c0 .178-.089.26-.273.26v-.006Zm-.513-3.727c-.444 0-.85-.057-1.224-.178a3.34 3.34 0 0 1-.97-.494 2.322 2.322 0 0 1-.64-.767 2.118 2.118 0 0 1-.228-.983c0-.33.076-.64.228-.925.152-.286.368-.54.64-.748.273-.21.596-.374.97-.495.368-.12.78-.184 1.224-.184.443 0 .849.064 1.223.184.368.12.691.286.964.495.272.209.481.456.633.748.153.285.229.596.229.925 0 .355-.076.685-.229.983a2.3 2.3 0 0 1-.633.767c-.273.215-.59.38-.964.494-.368.12-.78.178-1.223.178Zm6.37 7.378h-7.587a1.76 1.76 0 0 1-.45-.044.538.538 0 0 1-.273-.152.604.604 0 0 1-.139-.286 2.227 2.227 0 0 1-.038-.456v-1.934c0-.177.088-.26.259-.26h1.281c.184 0 .272.09.272.26v1.192c0 .133.07.197.21.197h6.465c.07 0 .133.012.184.044.051.032.076.095.076.19v1.02c0 .121-.025.19-.076.21a.536.536 0 0 1-.184.025v-.006Zm-6.37-10.744c-.393 0-.717.095-.97.279-.254.19-.38.418-.38.684 0 .298.126.539.38.73.253.19.577.278.97.278s.71-.095.963-.279c.247-.19.374-.43.374-.729 0-.272-.127-.5-.374-.684-.247-.19-.57-.28-.963-.28Zm6.11 8.113h-1.331c-.095 0-.158-.012-.196-.044-.038-.032-.051-.095-.051-.203v-.97h-1.965a.35.35 0 0 1-.19-.044c-.051-.032-.07-.095-.07-.19v-.9c0-.114.025-.184.076-.203a.531.531 0 0 1 .184-.032h1.965V4.253c0-.095.019-.158.051-.196.031-.038.101-.05.196-.05h1.331c.095 0 .159.018.197.05.031.032.05.101.05.196v9.249c0 .108-.019.171-.05.203-.032.031-.102.044-.197.044v.006Z"/><path fill="#86888B" d="M62.311 22.849c-.057 0-.096 0-.115-.013a.235.235 0 0 1-.063-.07l-.817-1.295-.236.28v.964c0 .045-.006.076-.026.096a.165.165 0 0 1-.089.025h-.542c-.045 0-.07-.006-.09-.025-.019-.013-.025-.045-.025-.096V18.09c0-.077.038-.121.115-.121h.542c.077 0 .121.038.121.12v2.585l.925-1.123s.039-.038.051-.045a.208.208 0 0 1 .077-.013h.58c.07 0 .109.013.115.045.013.026-.013.076-.076.147l-.976 1.225 1.135 1.78c.038.05.051.089.045.114 0 .026-.045.039-.109.039h-.542v.006ZM66.956 22.39a1.443 1.443 0 0 1-1.2.561c-.261 0-.491-.045-.683-.14a1.527 1.527 0 0 1-.49-.383 1.636 1.636 0 0 1-.3-.562 2.342 2.342 0 0 1-.007-1.352c.064-.21.166-.402.294-.561.134-.16.3-.287.497-.377.198-.09.428-.14.69-.14.26 0 .49.044.688.14.198.096.364.223.498.383s.23.345.3.555c.07.21.102.434.102.67 0 .236-.032.453-.096.663-.064.21-.16.39-.28.543h-.013Zm-1.206-2.265a.692.692 0 0 0-.345.09.897.897 0 0 0-.249.242c-.063.102-.114.21-.146.338a1.593 1.593 0 0 0-.051.389c0 .134.019.268.05.389.033.128.084.242.147.338a.696.696 0 0 0 .25.242c.101.064.21.09.344.09a.699.699 0 0 0 .35-.09.896.896 0 0 0 .25-.242c.063-.102.114-.217.146-.338.032-.128.045-.255.045-.39 0-.133-.02-.26-.045-.382a1.086 1.086 0 0 0-.147-.338.752.752 0 0 0-.248-.242.64.64 0 0 0-.351-.09v-.006ZM70.54 20.24a.749.749 0 0 0-.21-.058c-.064 0-.121 0-.166.013a.489.489 0 0 0-.23.153.66.66 0 0 0-.127.249 1.14 1.14 0 0 0-.058.293 4.918 4.918 0 0 0-.012.294v1.53c0 .046-.007.084-.02.097-.012.019-.044.025-.082.025h-.568c-.045 0-.07-.006-.083-.025-.013-.02-.02-.051-.02-.109v-3.088c0-.05.007-.082.026-.102.013-.019.045-.025.09-.025h.567c.058 0 .09.032.09.096v.223c.05-.077.115-.147.198-.217a.532.532 0 0 1 .248-.134c.083-.013.166-.02.243-.013.083 0 .14.026.185.058a.12.12 0 0 1 .038.044c0 .013.006.039.006.07v.517c0 .045-.006.077-.025.096-.02.02-.045.02-.083 0l-.006.013ZM74.668 21.305a.182.182 0 0 1-.032.108c-.019.026-.05.039-.096.039h-1.856c.026.267.109.459.255.586a.79.79 0 0 0 .498.205 1.398 1.398 0 0 0 .874-.236c.057-.039.09-.045.115-.032.019.019.031.057.031.127v.447c0 .044 0 .07-.012.09a.235.235 0 0 1-.07.063c-.115.076-.262.14-.434.179a2.47 2.47 0 0 1-.517.057c-.472 0-.848-.153-1.123-.453-.274-.306-.414-.74-.414-1.295 0-.21.025-.421.082-.625.058-.204.147-.396.269-.568a1.46 1.46 0 0 1 .452-.408c.179-.102.39-.16.632-.16s.46.045.632.134c.172.09.312.21.42.37.109.153.186.332.237.536.044.204.07.421.07.65v.199l-.013-.013Zm-1.34-1.2c-.083 0-.16.02-.23.058a.609.609 0 0 0-.184.153 1.06 1.06 0 0 0-.14.217.948.948 0 0 0-.077.261h1.206a.833.833 0 0 0-.147-.465.517.517 0 0 0-.172-.16.451.451 0 0 0-.25-.064h-.006ZM78.056 22.862c-.038 0-.058 0-.07-.013-.013-.007-.013-.032-.013-.07v-.256a.809.809 0 0 1-.332.275 1.015 1.015 0 0 1-.453.115c-.16 0-.319-.026-.466-.07a.88.88 0 0 1-.37-.211 1.049 1.049 0 0 1-.23-.35 1.212 1.212 0 0 1-.082-.467c0-.204.051-.389.147-.555.095-.166.23-.293.395-.389.166-.09.357-.16.587-.204.223-.045.472-.051.746-.038-.025-.313-.159-.485-.401-.517-.077-.006-.16 0-.243 0-.083 0-.16.032-.236.058a2.33 2.33 0 0 0-.223.089c-.07.032-.134.07-.192.102-.083.057-.14.083-.178.083-.038 0-.051-.038-.051-.121v-.492c0-.05 0-.089.012-.108a.244.244 0 0 1 .084-.07c.12-.058.255-.115.42-.166.16-.051.351-.077.568-.077.402 0 .702.102.906.306.198.205.3.524.3.957v1.882c0 .058 0 .109.006.154.007.076 0 .12-.012.127a.223.223 0 0 1-.083.013h-.543l.007.013Zm-.083-1.64c-.223 0-.408.02-.555.051-.147.032-.262.07-.351.121a.411.411 0 0 0-.179.185.577.577 0 0 0-.044.236c0 .128.038.224.115.294.076.07.178.102.312.102a.62.62 0 0 0 .51-.236c.128-.16.198-.408.198-.753h-.006ZM85.347 22.823a.733.733 0 0 1-.166.051 6.422 6.422 0 0 1-.21.039l-.243.019c-.082.006-.159 0-.236-.007a1.784 1.784 0 0 1-.663-.172 1.556 1.556 0 0 1-.485-.37 1.562 1.562 0 0 1-.293-.536 2.233 2.233 0 0 1-.102-.67c0-.255.038-.484.12-.701a1.64 1.64 0 0 1 .333-.549c.146-.153.319-.274.523-.357.204-.083.427-.128.676-.128.115 0 .242.007.376.026.134.012.262.044.377.083.038.012.057.025.064.044 0 .013.006.045 0 .09l-.058.459c-.006.045-.02.077-.038.096-.02.012-.058.012-.115 0a1.598 1.598 0 0 0-.3-.07c-.121-.013-.223-.02-.313-.013-.274.006-.484.108-.631.293-.147.185-.223.434-.223.747 0 .312.07.535.21.714.14.185.338.287.587.313.128.019.249.025.376.006.128-.02.237-.038.332-.07.064-.02.102-.026.115-.013.013.013.026.038.026.077l.038.459c0 .045 0 .076-.007.096a.169.169 0 0 1-.07.057v-.013ZM88.116 22.976c-.102.294-.23.504-.383.632a.834.834 0 0 1-.549.191c-.044 0-.108 0-.19-.006a.642.642 0 0 1-.243-.058.266.266 0 0 1-.083-.05c-.013-.014-.02-.045-.013-.084l.045-.485c0-.038.012-.057.038-.063.019 0 .045 0 .076.006.058.02.109.032.166.045a.525.525 0 0 0 .173.006.207.207 0 0 0 .089-.026.184.184 0 0 0 .07-.07c.045-.089.083-.178.121-.268.038-.089.077-.185.109-.3l-.983-2.794c-.019-.057-.019-.095 0-.114a.156.156 0 0 1 .096-.026h.561c.039 0 .058 0 .077.013.02.013.025.038.038.076l.587 1.882.587-1.882c.013-.044.026-.07.038-.076a.183.183 0 0 1 .077-.013h.574c.057 0 .09.013.096.032.012.02 0 .057-.013.115l-1.142 3.317h-.02ZM91.497 22.747c0 .044-.006.07-.019.082-.013.013-.038.02-.076.02h-.55c-.044 0-.076-.007-.095-.02-.019-.012-.025-.05-.025-.102v-4.663c0-.057.006-.09.025-.102.013-.013.045-.02.09-.02h.56c.046 0 .078.007.09.02.013.013.02.051.02.102v1.652c.082-.089.19-.166.325-.23a.917.917 0 0 1 .389-.095c.21 0 .402.038.574.121.166.083.313.198.427.345.115.146.205.331.268.548.064.217.096.46.096.727 0 .268-.032.517-.09.74a1.661 1.661 0 0 1-.26.556 1.241 1.241 0 0 1-.422.35 1.293 1.293 0 0 1-.58.122.8.8 0 0 1-.21-.032c-.071-.02-.141-.045-.205-.077a.86.86 0 0 1-.179-.115c-.05-.044-.102-.089-.127-.127v.198h-.026Zm.638-2.642a.548.548 0 0 0-.453.236.924.924 0 0 0-.14.32 2.073 2.073 0 0 0-.051.478c0 .185.019.338.057.472a.96.96 0 0 0 .147.325.642.642 0 0 0 .204.192c.077.044.16.064.242.064a.56.56 0 0 0 .466-.243c.121-.16.185-.427.185-.804 0-.357-.057-.619-.178-.784a.555.555 0 0 0-.473-.25l-.006-.006ZM97.858 21.305a.183.183 0 0 1-.032.108c-.02.026-.051.039-.096.039h-1.856c.025.267.108.459.248.586.14.128.306.192.504.205.179.006.338-.007.479-.051a1.71 1.71 0 0 0 .395-.185c.058-.039.096-.045.115-.032.02.019.032.057.032.127v.447c0 .044 0 .07-.013.09-.013.012-.032.037-.07.063-.115.076-.261.14-.434.179a2.47 2.47 0 0 1-.516.057c-.473 0-.849-.153-1.123-.453-.275-.3-.415-.74-.415-1.295 0-.21.026-.421.083-.625.057-.21.147-.396.268-.568.121-.166.274-.306.453-.408.178-.102.389-.16.631-.16.243 0 .46.045.632.134.172.09.313.21.421.37.109.153.185.332.236.536.045.204.07.421.07.65v.199l-.013-.013Zm-1.334-1.2c-.083 0-.16.02-.23.058a.61.61 0 0 0-.184.153 1.056 1.056 0 0 0-.14.217.949.949 0 0 0-.077.261h1.205a.833.833 0 0 0-.146-.465.517.517 0 0 0-.173-.16.513.513 0 0 0-.248-.064h-.007ZM101.073 20.24a.753.753 0 0 0-.211-.058c-.064 0-.121 0-.166.013a.488.488 0 0 0-.229.153.658.658 0 0 0-.128.249 1.12 1.12 0 0 0-.057.293 4.47 4.47 0 0 0-.013.294v1.53c0 .046-.007.084-.019.097-.013.019-.045.025-.083.025h-.568c-.045 0-.07-.006-.083-.025-.013-.02-.02-.051-.02-.109v-3.088c0-.05.007-.082.026-.102.013-.019.045-.025.09-.025h.568c.057 0 .089.032.089.096v.223c.051-.077.115-.147.198-.217a.528.528 0 0 1 .248-.134c.083-.013.166-.02.249-.013.083 0 .141.026.185.058a.13.13 0 0 1 .039.044c0 .013.006.039.006.07v.517c0 .045-.006.077-.026.096-.012.02-.044.02-.083 0l-.012.013ZM105.264 22.843c-.038 0-.058-.007-.077-.026-.013-.02-.019-.051-.019-.096v-4.625c0-.044 0-.076.019-.096.013-.019.039-.025.077-.025h.587c.038 0 .063.006.076.025.013.013.019.045.019.096v4.625c0 .045-.006.077-.019.096-.013.013-.038.026-.076.026h-.587ZM107.956 19.02a.423.423 0 0 1-.325-.133.459.459 0 0 1-.134-.332c0-.128.045-.242.128-.332a.41.41 0 0 1 .331-.14.42.42 0 0 1 .332.14.47.47 0 0 1 .134.332.459.459 0 0 1-.466.466Zm-.3 3.828c-.038 0-.057-.006-.076-.025-.013-.013-.019-.045-.019-.096V19.64c0-.045 0-.077.019-.096.013-.013.038-.026.076-.026h.587c.039 0 .064.007.083.026.013.019.019.045.019.096v3.087c0 .045-.006.077-.019.096-.012.013-.038.025-.083.025h-.587ZM112.281 22.823a.71.71 0 0 1-.166.051 6.236 6.236 0 0 1-.21.039l-.243.019a1.45 1.45 0 0 1-.236-.007 1.784 1.784 0 0 1-.663-.172 1.561 1.561 0 0 1-.485-.37 1.556 1.556 0 0 1-.293-.536 2.227 2.227 0 0 1-.102-.67c0-.255.038-.484.121-.701.076-.21.191-.396.332-.549.146-.153.318-.274.523-.357.204-.083.427-.128.676-.128.115 0 .242.007.376.026.134.012.262.044.377.083.038.012.057.025.063.044 0 .013.007.045 0 .09l-.057.459c-.006.045-.019.077-.038.096-.019.012-.058.012-.115 0a1.598 1.598 0 0 0-.613-.083c-.274.006-.484.108-.631.293-.147.185-.223.434-.223.747 0 .312.07.535.21.714.14.185.338.287.587.313.128.019.249.025.376.006a2 2 0 0 0 .332-.07c.064-.02.102-.026.115-.013.013.013.026.038.026.077l.038.459c0 .045 0 .076-.007.096a.158.158 0 0 1-.07.057v-.013ZM116.504 21.305a.177.177 0 0 1-.032.108c-.019.026-.051.039-.095.039h-1.857c.026.267.109.459.256.586a.79.79 0 0 0 .497.205c.185.006.338-.007.479-.051.14-.045.267-.102.395-.185.058-.039.089-.045.115-.032.019.019.032.057.032.127v.447c0 .044 0 .07-.013.09a.24.24 0 0 1-.07.063c-.115.076-.262.14-.434.179a2.474 2.474 0 0 1-.517.057c-.472 0-.848-.153-1.122-.453-.275-.306-.415-.74-.415-1.295 0-.21.025-.421.083-.625a1.85 1.85 0 0 1 .268-.568c.121-.166.274-.306.453-.408a1.25 1.25 0 0 1 .631-.16c.243 0 .46.045.632.134.172.09.312.21.421.37.108.153.185.332.236.536.045.204.07.421.07.65v.199l-.013-.013Zm-1.339-1.2c-.083 0-.16.02-.23.058a.611.611 0 0 0-.185.153.933.933 0 0 0-.217.479h1.206a.85.85 0 0 0-.147-.466.52.52 0 0 0-.172-.16.451.451 0 0 0-.249-.064h-.006ZM118.916 22.727c0 .045-.006.077-.026.096a.146.146 0 0 1-.089.026h-.549c-.044 0-.076-.013-.095-.032a.17.17 0 0 1-.026-.096V19.952c0-.153 0-.267-.013-.35-.006-.045 0-.07.013-.083.013-.013.051-.02.109-.02h.561c.045 0 .07 0 .083.013.013.013.019.032.019.064v.223c.083-.089.192-.165.325-.242a.8.8 0 0 1 .409-.108c.395 0 .682.114.867.338.185.223.275.555.275.982v1.959c0 .044-.007.076-.026.095-.013.013-.044.026-.089.026h-.549c-.076 0-.121-.038-.121-.128v-1.83c0-.48-.147-.715-.434-.715-.204 0-.357.064-.472.198-.115.134-.172.306-.172.535v1.825-.007ZM124.185 22.721a.939.939 0 0 1-.351.166 1.712 1.712 0 0 1-.414.051c-.077 0-.153 0-.243-.013-.089-.012-.172-.019-.249-.038a1.78 1.78 0 0 1-.216-.051 1.369 1.369 0 0 1-.154-.051.278.278 0 0 1-.083-.051c-.012-.013-.019-.045-.012-.083l.044-.434c0-.044.013-.076.032-.09.019-.012.045-.012.09 0 .121.046.248.084.382.116s.268.05.415.05c.147 0 .249-.038.313-.108a.391.391 0 0 0 .102-.268c0-.076-.032-.146-.102-.223a1.38 1.38 0 0 0-.249-.204 2.751 2.751 0 0 0-.294-.172c-.095-.051-.178-.096-.236-.134a1.01 1.01 0 0 1-.331-.306.725.725 0 0 1-.134-.434c0-.179.032-.332.089-.46a.862.862 0 0 1 .242-.319.975.975 0 0 1 .351-.185c.134-.038.268-.057.408-.057.071 0 .147 0 .23.013.083.012.16.025.23.038.07.02.14.032.204.051.064.02.115.038.147.051.038.02.063.038.07.051 0 .02.006.038 0 .07l-.051.453c-.007.045-.019.077-.045.083-.019 0-.051 0-.096-.019a1.365 1.365 0 0 0-.657-.134c-.127 0-.217.032-.274.09-.057.057-.083.14-.083.242 0 .044.026.096.077.16a.97.97 0 0 0 .274.203c.121.064.236.134.332.192.095.064.172.108.223.146.14.109.249.224.325.332.077.109.109.262.109.447a.964.964 0 0 1-.408.83h-.007ZM128.766 21.305a.183.183 0 0 1-.032.108c-.019.026-.051.039-.096.039h-1.856c.025.267.108.459.255.586a.79.79 0 0 0 .498.205 1.393 1.393 0 0 0 .874-.236c.057-.039.089-.045.114-.032.02.019.032.057.032.127v.447c0 .044 0 .07-.012.09a.234.234 0 0 1-.071.063c-.114.076-.261.14-.433.179a2.474 2.474 0 0 1-.517.057c-.472 0-.849-.153-1.123-.453-.274-.306-.415-.74-.415-1.295 0-.21.026-.421.083-.625.058-.204.147-.396.268-.568.121-.166.275-.306.453-.408.179-.102.389-.16.632-.16.242 0 .459.045.631.134.173.09.313.21.421.37.109.153.185.332.236.536.045.204.071.421.071.65v.199l-.013-.013Zm-1.333-1.2c-.083 0-.16.02-.23.058a.611.611 0 0 0-.185.153 1.093 1.093 0 0 0-.141.217.965.965 0 0 0-.076.261h1.206a.818.818 0 0 0-.039-.242.782.782 0 0 0-.108-.223.52.52 0 0 0-.172-.16.451.451 0 0 0-.249-.064h-.006ZM134.52 22.721a.939.939 0 0 1-.351.166 1.72 1.72 0 0 1-.415.051c-.076 0-.159 0-.242-.013-.089-.012-.172-.019-.249-.038a1.845 1.845 0 0 1-.37-.102.265.265 0 0 1-.083-.051c-.013-.013-.019-.045-.013-.083l.045-.434c0-.044.013-.076.032-.09.013-.012.045-.012.089 0 .122.046.249.084.383.116s.268.05.415.05c.146 0 .249-.038.312-.108a.387.387 0 0 0 .102-.268c0-.076-.032-.146-.102-.223a1.52 1.52 0 0 0-.242-.204 2.656 2.656 0 0 0-.294-.172 2.284 2.284 0 0 1-.236-.134 1.083 1.083 0 0 1-.331-.306.725.725 0 0 1-.134-.434c0-.179.032-.332.089-.46a.943.943 0 0 1 .242-.319.983.983 0 0 1 .351-.185c.134-.038.268-.057.409-.057.07 0 .146 0 .229.013.083.012.16.025.23.038.07.02.14.032.204.051.064.02.115.038.147.051.038.02.064.038.07.051 0 .02.006.038 0 .07l-.051.453c-.006.045-.019.077-.045.083-.019 0-.051 0-.095-.019a1.371 1.371 0 0 0-.658-.134c-.127 0-.216.032-.274.09-.057.057-.083.14-.083.242 0 .044.026.096.077.16a.97.97 0 0 0 .274.203c.121.064.236.134.332.192.102.064.172.108.223.146.14.109.249.224.325.332a.818.818 0 0 1 .109.447.964.964 0 0 1-.408.83h-.013ZM139.088 22.39a1.446 1.446 0 0 1-.523.42c-.204.096-.428.141-.677.141-.248 0-.491-.045-.682-.14a1.519 1.519 0 0 1-.491-.383 1.631 1.631 0 0 1-.3-.562c-.07-.21-.102-.44-.102-.676 0-.236.032-.46.095-.676a1.68 1.68 0 0 1 .294-.561c.134-.16.3-.287.497-.377.198-.09.428-.14.689-.14.262 0 .492.044.689.14.198.096.364.223.498.383s.23.345.3.555c.07.21.102.434.102.67 0 .236-.032.453-.096.663-.064.21-.159.39-.28.543h-.013Zm-1.206-2.265a.69.69 0 0 0-.344.09.818.818 0 0 0-.249.242c-.064.102-.115.21-.147.338a1.544 1.544 0 0 0 0 .778c.032.121.083.242.147.338a.756.756 0 0 0 .249.242.6.6 0 0 0 .344.09.7.7 0 0 0 .351-.09.785.785 0 0 0 .242-.242c.064-.102.115-.217.147-.338.032-.121.045-.255.045-.39 0-.133-.013-.26-.045-.382a.995.995 0 0 0-.147-.338.784.784 0 0 0-.242-.242.64.64 0 0 0-.351-.09v-.006ZM143.298 22.823a.743.743 0 0 1-.166.051 6.735 6.735 0 0 1-.21.039l-.243.019c-.083.006-.159 0-.236-.007a1.779 1.779 0 0 1-.663-.172 1.465 1.465 0 0 1-.779-.906 2.053 2.053 0 0 1-.102-.67c0-.255.039-.484.122-.701.076-.21.191-.396.331-.549a1.5 1.5 0 0 1 .523-.357 1.78 1.78 0 0 1 .677-.128 2.663 2.663 0 0 1 .752.109c.039.012.058.025.064.044 0 .013.007.045 0 .09l-.057.459c-.007.045-.019.077-.038.096-.02.012-.058.012-.115 0a1.598 1.598 0 0 0-.3-.07 1.332 1.332 0 0 0-.313-.013c-.274.006-.485.108-.631.293-.147.185-.224.434-.224.747 0 .312.071.535.211.714.14.179.338.287.587.313.127.019.255.025.376.006a1.51 1.51 0 0 0 .332-.07c.064-.02.102-.026.115-.013.013.013.025.038.025.077l.039.459c0 .045 0 .076-.007.096a.171.171 0 0 1-.07.057v-.013ZM145.231 19.02a.423.423 0 0 1-.325-.133.459.459 0 0 1-.134-.332c0-.128.045-.242.127-.332a.413.413 0 0 1 .332-.14.42.42 0 0 1 .332.14.47.47 0 0 1 .134.332.459.459 0 0 1-.466.466Zm-.3 3.828c-.038 0-.057-.006-.076-.025-.013-.013-.019-.045-.019-.096V19.64c0-.045 0-.077.019-.096.013-.013.038-.026.076-.026h.587c.039 0 .064.007.083.026.013.019.019.045.019.096v3.087c0 .045-.006.077-.019.096-.013.013-.038.025-.083.025h-.587ZM149.926 21.305a.183.183 0 0 1-.031.108c-.02.026-.051.039-.096.039h-1.857c.026.267.109.459.256.586a.79.79 0 0 0 .497.205c.185.006.338-.007.479-.051.14-.045.268-.102.395-.185.058-.039.09-.045.115-.032.019.019.032.057.032.127v.447c0 .044 0 .07-.013.09a.24.24 0 0 1-.07.063c-.115.076-.262.14-.434.179a2.467 2.467 0 0 1-.517.057c-.472 0-.848-.153-1.122-.453-.275-.306-.415-.74-.415-1.295 0-.21.026-.421.083-.625a1.85 1.85 0 0 1 .268-.568c.121-.166.274-.306.453-.408a1.25 1.25 0 0 1 .631-.16c.243 0 .46.045.632.134.172.09.313.21.421.37.108.153.185.332.236.536.045.204.07.421.07.65v.199l-.013-.013Zm-1.333-1.2a.476.476 0 0 0-.23.058.623.623 0 0 0-.185.153.93.93 0 0 0-.216.479h1.205a.816.816 0 0 0-.146-.466.514.514 0 0 0-.173-.16.45.45 0 0 0-.248-.064h-.007ZM153.18 22.81a1.282 1.282 0 0 1-.287.09 1.39 1.39 0 0 1-.377.032.75.75 0 0 1-.395-.108.763.763 0 0 1-.262-.25 1.073 1.073 0 0 1-.102-.388 6.582 6.582 0 0 1-.019-.562v-1.397h-.421c-.077 0-.115-.038-.115-.121v-.491c0-.077.038-.122.115-.122h.421v-.79c0-.077.038-.122.121-.122h.542c.077 0 .115.038.115.121v.791h.504c.045 0 .077.007.09.026.012.02.019.051.019.09v.49c0 .045-.007.077-.019.09-.013.019-.045.025-.09.025h-.504v1.672c0 .089 0 .146.013.172.013.076.051.121.102.14.051.02.109.026.166.02a.573.573 0 0 0 .172-.045c.058-.02.096-.038.128-.051.032-.02.057-.02.07 0 .019.012.026.044.032.083l.051.446v.083c0 .02-.032.038-.064.058l-.006.019ZM155.821 22.976c-.102.294-.23.504-.383.632a.833.833 0 0 1-.548.191c-.045 0-.109 0-.192-.006a.638.638 0 0 1-.242-.058.265.265 0 0 1-.083-.05c-.013-.014-.019-.045-.013-.084l.045-.485c0-.038.012-.057.038-.063a.37.37 0 0 1 .077.006c.057.02.108.032.165.045a.53.53 0 0 0 .173.006.207.207 0 0 0 .089-.026.186.186 0 0 0 .07-.07c.045-.089.083-.178.121-.268.039-.089.077-.185.109-.3l-.983-2.794c-.019-.057-.019-.095 0-.114a.157.157 0 0 1 .096-.026h.561c.039 0 .058 0 .077.013.019.013.026.038.038.076l.587 1.882.587-1.882c.013-.044.026-.07.038-.076a.188.188 0 0 1 .077-.013h.574c.057 0 .089.013.096.032.013.02 0 .057-.013.115l-1.142 3.317h-.019Z"/></svg>