<svg xmlns="http://www.w3.org/2000/svg" width="120" height="24" fill="none"><path fill="#C2C2C2" d="M21 10.207c-.009.211-.121.454-.338.645a2447 2447 0 0 1-3.836 3.361c-.058.051-.073.096-.055.175.313 1.369.624 2.738.932 4.108.062.275.124.55.191.825.098.406-.027.808-.344 1.035-.348.25-.718.266-1.087.048a892.735 892.735 0 0 1-3.514-2.1c-.274-.164-.55-.323-.819-.492-.09-.057-.155-.057-.247-.002-1.423.854-2.85 1.703-4.27 2.557-.302.181-.61.25-.944.112-.442-.18-.672-.645-.563-1.127l.933-4.096c.065-.286.124-.575.195-.86.02-.082.006-.13-.057-.185-.534-.465-1.068-.932-1.6-1.4-.745-.654-1.493-1.304-2.235-1.963-.302-.269-.417-.612-.293-1.004s.402-.628.815-.67c.733-.076 1.467-.139 2.2-.206l2.177-.198c.242-.022.484-.046.726-.064.078-.006.12-.04.148-.111a3272.08 3272.08 0 0 1 1.975-4.631c.183-.427.508-.665.921-.655.414.011.712.213.876.593.446 1.033.887 2.069 1.329 3.104.225.525.45 1.053.672 1.58.034.082.082.114.167.12a1684.567 1684.567 0 0 1 4.294.389c.27.024.54.048.809.078.489.058.846.466.842 1.034ZM45 10.207c-.009.211-.121.454-.338.645a2447 2447 0 0 1-3.836 3.361c-.058.051-.073.096-.055.175.313 1.369.624 2.738.932 4.108.062.275.124.55.191.825.098.406-.027.808-.344 1.035-.348.25-.718.266-1.087.048a892.735 892.735 0 0 1-3.514-2.1c-.274-.164-.55-.323-.819-.492-.09-.057-.155-.057-.247-.002-1.423.854-2.85 1.703-4.27 2.557-.302.181-.61.25-.944.112-.442-.18-.672-.645-.563-1.127l.932-4.096c.066-.286.125-.575.195-.86.021-.082.007-.13-.056-.185a359.96 359.96 0 0 1-1.6-1.4c-.745-.654-1.493-1.304-2.235-1.963-.302-.269-.417-.612-.293-1.004s.402-.628.815-.67c.733-.076 1.467-.139 2.2-.206l2.177-.198c.242-.022.484-.046.726-.064.078-.006.12-.04.148-.111l1.975-4.631c.182-.427.508-.665.921-.655.414.011.712.213.876.593.446 1.033.887 2.069 1.329 3.104.225.525.45 1.053.672 1.58.034.082.082.114.167.12a1684.567 1684.567 0 0 1 4.294.389c.27.024.54.048.809.078.489.058.846.466.842 1.034ZM69 10.207c-.009.211-.121.454-.338.645a2447 2447 0 0 1-3.836 3.361c-.058.051-.073.096-.055.175.313 1.369.624 2.738.932 4.108.062.275.124.55.191.825.098.406-.027.808-.344 1.035-.348.25-.718.266-1.087.048a892.735 892.735 0 0 1-3.514-2.1c-.274-.164-.55-.323-.819-.492-.09-.057-.155-.057-.247-.002-1.423.854-2.85 1.703-4.27 2.557-.302.181-.61.25-.944.112-.442-.18-.672-.645-.563-1.127l.932-4.096c.066-.286.125-.575.196-.86.02-.082.006-.13-.057-.185a359.96 359.96 0 0 1-1.6-1.4c-.745-.654-1.493-1.304-2.234-1.963-.303-.269-.418-.612-.294-1.004s.401-.628.815-.67c.733-.076 1.467-.139 2.2-.206l2.177-.198c.242-.022.484-.046.726-.064.078-.006.12-.04.148-.111l1.975-4.631c.182-.427.508-.665.921-.655.414.011.712.213.876.593.446 1.033.887 2.069 1.329 3.104.225.525.45 1.053.672 1.58.034.082.082.114.167.12a1684.567 1684.567 0 0 1 4.294.389c.27.024.54.048.809.078.489.058.846.466.842 1.034ZM93 10.207c-.009.211-.121.454-.338.645a2447 2447 0 0 1-3.836 3.361c-.058.051-.073.096-.055.175.313 1.369.624 2.738.932 4.108.062.275.124.55.191.825.098.406-.027.808-.344 1.035-.348.25-.718.266-1.087.048a892.735 892.735 0 0 1-3.514-2.1c-.274-.164-.55-.323-.819-.492-.09-.057-.155-.057-.247-.002-1.423.854-2.85 1.703-4.27 2.557-.302.181-.61.25-.944.112-.442-.18-.672-.645-.563-1.127l.933-4.096c.065-.286.124-.575.195-.86.02-.082.006-.13-.057-.185a359.96 359.96 0 0 1-1.6-1.4c-.745-.654-1.493-1.304-2.234-1.963-.303-.269-.418-.612-.294-1.004s.401-.628.815-.67c.733-.076 1.467-.139 2.2-.206l2.177-.198c.242-.022.484-.046.726-.064.078-.006.12-.04.148-.111l1.975-4.631c.182-.427.508-.665.921-.655.414.011.712.213.876.593.446 1.033.887 2.069 1.329 3.104.225.525.45 1.053.672 1.58.034.082.082.114.167.12a1684.567 1684.567 0 0 1 4.294.389c.27.024.54.048.809.078.489.058.846.466.842 1.034ZM117 10.207c-.009.211-.121.454-.338.645a2353.52 2353.52 0 0 1-3.836 3.361c-.058.051-.073.096-.055.175.313 1.369.624 2.738.932 4.108.062.275.124.55.191.825.098.406-.027.808-.344 1.035-.348.25-.718.266-1.087.048a892.44 892.44 0 0 1-3.514-2.1c-.274-.164-.55-.323-.819-.492-.09-.057-.155-.057-.247-.002-1.423.854-2.849 1.703-4.27 2.557-.302.181-.611.25-.944.112-.442-.18-.672-.645-.563-1.127l.933-4.096c.065-.286.124-.575.195-.86.02-.082.006-.13-.057-.185-.534-.465-1.068-.932-1.6-1.4-.745-.654-1.493-1.304-2.234-1.963-.303-.269-.418-.612-.294-1.004s.401-.628.815-.67c.733-.076 1.467-.139 2.2-.206l2.177-.198c.242-.022.484-.046.726-.064.078-.006.119-.04.148-.111l1.975-4.631c.183-.427.508-.665.921-.655.414.011.712.213.876.593.446 1.033.887 2.069 1.329 3.104.225.525.451 1.053.672 1.58.034.082.082.114.167.12a1709.35 1709.35 0 0 1 4.295.389c.269.024.539.048.808.078.489.058.846.466.842 1.034Z"/></svg>